<?xml version="1.0" encoding="UTF-8"?>
<svg width="80px" height="80px" viewBox="0 0 80 80" version="1.1" xmlns="http://www.w3.org/2000/svg" xmlns:xlink="http://www.w3.org/1999/xlink">
    <title>TAUD</title>
    <g id="Page-1" stroke="none" stroke-width="1" fill="none" fill-rule="evenodd">
        <g id="TAUD" fill-rule="nonzero">
            <path d="M0,7.40741 C0,3.31641 3.31641,0 7.40741,0 L72.5926,0 C76.6836,0 80,3.31641 80,7.40741 L80,72.5926 C80,76.6836 76.6836,80 72.5926,80 L7.40741,80 C3.31641,80 0,76.6836 0,72.5926 L0,7.40741 Z" id="Path" fill="#11975F"></path>
            <path d="M2.96289,51.8516 L77.037,51.8516 L77.037,71.8516 C77.037,74.7153 74.7155,77.0367 71.8518,77.0367 L8.14808,77.0367 C5.28438,77.0367 2.96289,74.7153 2.96289,71.8516 L2.96289,51.8516 Z" id="Path" fill="#FFFFFF"></path>
            <polygon id="Path" fill="#FFFFFF" points="44.8863 18.1591 44.8863 42.9632 35.0513 42.9632 35.0513 18.1591 22.2222 18.1591 22.2222 8.88916 57.7777 8.88916 57.7777 18.1591"></polygon>
            <polygon id="Path" fill="#11975F" points="23.1687 59.9211 23.1687 57.3789 11.0161 57.3789 11.0161 59.9211 15.4843 59.9211 15.4843 71.1108 18.508 71.1108 18.508 59.9211"></polygon>
            <path d="M31.9132,65.6604 L27.2909,65.6604 L29.5635,60.3063 L31.9132,65.6604 Z M34.3013,71.1108 L37.402,71.1108 L31.1235,57.3789 L28.0228,57.3789 L21.8598,71.1108 L24.9798,71.1108 L26.2702,68.0871 L32.9724,68.0871 L34.3013,71.1108 Z" id="Shape" fill="#11975F"></path>
            <path d="M45.2356,71.4574 C49.3956,71.4574 51.803,69.3582 51.803,64.1774 L51.803,57.3789 L48.7215,57.3789 L48.7215,64.0811 C48.7215,67.4515 47.6237,68.6263 45.2549,68.6263 C42.886,68.6263 41.7112,67.3937 41.7112,64.0811 L41.7112,57.3789 L38.6297,57.3789 L38.6297,64.1774 C38.6297,69.3582 40.8637,71.4574 45.2356,71.4574 Z" id="Path" fill="#11975F"></path>
            <path d="M55.4343,71.1108 L61.3469,71.1108 C65.9691,71.1108 68.7424,69.0885 68.7424,64.5626 L68.7424,64.0426 C68.7424,59.4204 65.8921,57.3789 61.1928,57.3789 L55.4343,57.3789 L55.4343,71.1108 Z M61.058,59.9211 C64.2743,59.9211 65.738,61.1537 65.738,64.1004 L65.738,64.4278 C65.738,67.3552 64.3128,68.53 61.1928,68.53 L58.3424,68.53 L58.3424,59.9211 L61.058,59.9211 Z" id="Shape" fill="#11975F"></path>
        </g>
    </g>
</svg>