<?xml version="1.0" encoding="UTF-8"?>
<svg width="80px" height="80px" viewBox="0 0 80 80" version="1.1" xmlns="http://www.w3.org/2000/svg" xmlns:xlink="http://www.w3.org/1999/xlink">
    <title>TCAD</title>
    <g id="Page-1" stroke="none" stroke-width="1" fill="none" fill-rule="evenodd">
        <g id="TCAD" fill-rule="nonzero">
            <path d="M0,7.40741 C0,3.31641 3.31641,0 7.40741,0 L72.5926,0 C76.6836,0 80,3.31641 80,7.40741 L80,72.5926 C80,76.6836 76.6836,80 72.5926,80 L7.40741,80 C3.31641,80 0,76.6836 0,72.5926 L0,7.40741 Z" id="Path" fill="#654FF1"></path>
            <path d="M2.96289,51.8516 L77.037,51.8516 L77.037,71.8516 C77.037,74.7153 74.7155,77.0367 71.8518,77.0367 L8.14808,77.0367 C5.28438,77.0367 2.96289,74.7153 2.96289,71.8516 L2.96289,51.8516 Z" id="Path" fill="#FFFFFF"></path>
            <polygon id="Path" fill="#FFFFFF" points="44.8863 18.1591 44.8863 42.9632 35.0513 42.9632 35.0513 18.1591 22.2222 18.1591 22.2222 8.88916 57.7777 8.88916 57.7777 18.1591"></polygon>
            <polygon id="Path" fill="#654FF1" points="21.9783 59.9214 21.9783 57.3792 9.82568 57.3792 9.82568 59.9214 14.2938 59.9214 14.2938 71.111 17.3175 71.111 17.3175 59.9214"></polygon>
            <path d="M38.2016,65.5451 L35.0046,65.5451 C34.7542,67.5866 33.5987,68.7422 30.9602,68.7422 C28.1868,68.7422 26.6268,67.3555 26.6268,64.5244 L26.6268,64.1199 C26.6268,61.077 28.2446,59.7288 31.0372,59.7288 C33.4253,59.7288 34.6965,60.7688 34.9853,62.6177 L38.1246,62.6177 C37.5083,58.8814 34.9083,57.071 31.0179,57.071 C26.5691,57.071 23.6031,59.6133 23.6031,64.0622 L23.6031,64.6014 C23.6031,69.3007 26.3572,71.4577 30.7868,71.4577 C35.4861,71.4577 37.7009,69.2044 38.2016,65.5451 Z" id="Path" fill="#654FF1"></path>
            <path d="M49.4215,65.6607 L44.7993,65.6607 L47.0719,60.3066 L49.4215,65.6607 Z M51.8097,71.111 L54.9104,71.111 L48.6319,57.3792 L45.5311,57.3792 L39.3682,71.111 L42.4882,71.111 L43.7786,68.0873 L50.4808,68.0873 L51.8097,71.111 Z" id="Shape" fill="#654FF1"></path>
            <path d="M57.366,71.111 L63.2786,71.111 C67.9008,71.111 70.6741,69.0888 70.6741,64.5629 L70.6741,64.0429 C70.6741,59.4207 67.8237,57.3792 63.1245,57.3792 L57.366,57.3792 L57.366,71.111 Z M62.9897,59.9214 C66.206,59.9214 67.6697,61.154 67.6697,64.1007 L67.6697,64.4281 C67.6697,67.3555 66.2445,68.5303 63.1245,68.5303 L60.2741,68.5303 L60.2741,59.9214 L62.9897,59.9214 Z" id="Shape" fill="#654FF1"></path>
        </g>
    </g>
</svg>