<?xml version="1.0" encoding="UTF-8"?>
<svg width="80px" height="80px" viewBox="0 0 80 80" version="1.1" xmlns="http://www.w3.org/2000/svg" xmlns:xlink="http://www.w3.org/1999/xlink">
    <title>TGBP</title>
    <g id="Page-1" stroke="none" stroke-width="1" fill="none" fill-rule="evenodd">
        <g id="TGBP" fill-rule="nonzero">
            <path d="M0,7.40741 C0,3.31641 3.31641,0 7.40741,0 L72.5926,0 C76.6836,0 80,3.31641 80,7.40741 L80,72.5926 C80,76.6836 76.6836,80 72.5926,80 L7.40741,80 C3.31641,80 0,76.6836 0,72.5926 L0,7.40741 Z" id="Path" fill="#F43C3C"></path>
            <path d="M2.96289,51.8516 L77.037,51.8516 L77.037,71.8516 C77.037,74.7153 74.7155,77.0367 71.8518,77.0367 L8.14808,77.0367 C5.28438,77.0367 2.96289,74.7153 2.96289,71.8516 L2.96289,51.8516 Z" id="Path" fill="#FFFFFF"></path>
            <polygon id="Path" fill="#FFFFFF" points="44.8863 18.1591 44.8863 42.9632 35.0513 42.9632 35.0513 18.1591 22.2222 18.1591 22.2222 8.88916 57.7777 8.88916 57.7777 18.1591"></polygon>
            <polygon id="Path" fill="#F43C3C" points="21.824 59.9214 21.824 57.3792 9.67139 57.3792 9.67139 59.9214 14.1395 59.9214 14.1395 71.111 17.1632 71.111 17.1632 59.9214"></polygon>
            <path d="M35.5051,71.111 L37.874,71.111 L37.874,63.7733 L30.3629,63.7733 L30.3629,66.2577 L34.9273,66.2577 C34.7155,67.8562 33.3866,68.877 30.7096,68.877 C27.8592,68.877 26.4725,67.5096 26.4725,64.6014 L26.4725,64.1392 C26.4725,61.0962 28.0133,59.7096 30.8444,59.7096 C33.2518,59.7096 34.2918,60.6725 34.5229,62.1747 L37.797,62.1747 C37.3733,58.7466 34.831,57.071 30.8059,57.071 C26.434,57.071 23.4488,59.5555 23.4488,64.0622 L23.4488,64.6592 C23.4488,69.3777 26.0488,71.4577 30.074,71.4577 C33.1748,71.4577 34.9081,69.9555 35.3125,67.5673 L35.5051,71.111 Z" id="Path" fill="#F43C3C"></path>
            <path d="M48.3404,71.111 C52.4618,71.111 54.6189,69.9555 54.6189,67.1629 L54.6189,67.1051 C54.6189,65.2947 53.733,64.4281 51.8841,64.0429 C53.5211,63.6385 54.3107,62.7333 54.3107,61.0192 L54.3107,60.9614 C54.3107,58.3999 52.3463,57.3792 48.167,57.3792 L41.5033,57.3792 L41.5033,71.111 L48.3404,71.111 Z M48.3018,59.7288 C50.5167,59.7288 51.4026,60.0177 51.4026,61.2888 L51.4026,61.3273 C51.4026,62.5985 50.247,62.9066 48.3789,62.9066 L44.373,62.9066 L44.373,59.7288 L48.3018,59.7288 Z M48.1093,65.237 C50.7093,65.237 51.6144,65.5644 51.6144,66.8933 L51.6144,66.951 C51.6144,68.1836 50.8441,68.6266 47.9552,68.6266 L44.373,68.6266 L44.373,65.237 L48.1093,65.237 Z" id="Shape" fill="#F43C3C"></path>
            <path d="M63.8475,59.8636 C66.2164,59.8636 67.3527,60.4029 67.3527,62.1362 C67.3527,63.6962 66.332,64.3318 63.9246,64.3318 L60.4772,64.3318 L60.4772,59.8636 L63.8475,59.8636 Z M64.0594,66.8162 C68.2579,66.8547 70.2994,65.1407 70.2994,62.1362 C70.2994,59.0355 68.4312,57.3792 63.8475,57.3792 L57.569,57.3792 L57.569,71.111 L60.4772,71.111 L60.4772,66.8162 L64.0594,66.8162 Z" id="Shape" fill="#F43C3C"></path>
        </g>
    </g>
</svg>