<?xml version="1.0" encoding="UTF-8"?>
<svg width="80px" height="80px" viewBox="0 0 80 80" version="1.1" xmlns="http://www.w3.org/2000/svg" xmlns:xlink="http://www.w3.org/1999/xlink">
    <title>THKD</title>
    <g id="Page-1" stroke="none" stroke-width="1" fill="none" fill-rule="evenodd">
        <g id="THKD" fill-rule="nonzero">
            <path d="M0,7.40741 C0,3.31641 3.31641,0 7.40741,0 L72.5926,0 C76.6836,0 80,3.31641 80,7.40741 L80,72.5926 C80,76.6836 76.6836,80 72.5926,80 L7.40741,80 C3.31641,80 0,76.6836 0,72.5926 L0,7.40741 Z" id="Path" fill="#0F91A3"></path>
            <path d="M2.96289,51.8516 L77.037,51.8516 L77.037,71.8516 C77.037,74.7153 74.7155,77.0367 71.8518,77.0367 L8.14808,77.0367 C5.28438,77.0367 2.96289,74.7153 2.96289,71.8516 L2.96289,51.8516 Z" id="Path" fill="#FFFFFF"></path>
            <polygon id="Path" fill="#FFFFFF" points="44.8863 18.1591 44.8863 42.9632 35.0513 42.9632 35.0513 18.1591 22.2222 18.1591 22.2222 8.88916 57.7777 8.88916 57.7777 18.1591"></polygon>
            <polygon id="Path" fill="#0F91A3" points="21.6677 59.9211 21.6677 57.3789 9.51514 57.3789 9.51514 59.9211 13.9833 59.9211 13.9833 71.1108 17.007 71.1108 17.007 59.9211"></polygon>
            <polygon id="Path" fill="#0F91A3" points="34.7709 71.1108 37.6984 71.1108 37.6984 57.3789 34.7709 57.3789 34.7709 62.8485 27.645 62.8485 27.645 57.3789 24.6984 57.3789 24.6984 71.1108 27.645 71.1108 27.645 65.6604 34.7709 65.6604"></polygon>
            <polygon id="Path" fill="#0F91A3" points="51.9728 71.1108 55.4009 71.1108 49.7194 62.5019 55.1313 57.3789 51.2602 57.3789 44.5002 63.8885 44.5002 57.3789 41.5728 57.3789 41.5728 71.1108 44.5002 71.1108 44.5002 67.0663 47.5817 64.1967"></polygon>
            <path d="M57.6761,71.1108 L63.5887,71.1108 C68.2109,71.1108 70.9842,69.0885 70.9842,64.5626 L70.9842,64.0426 C70.9842,59.4204 68.1339,57.3789 63.4346,57.3789 L57.6761,57.3789 L57.6761,71.1108 Z M63.2998,59.9211 C66.5161,59.9211 67.9798,61.1537 67.9798,64.1004 L67.9798,64.4278 C67.9798,67.3552 66.5546,68.53 63.4346,68.53 L60.5842,68.53 L60.5842,59.9211 L63.2998,59.9211 Z" id="Shape" fill="#0F91A3"></path>
        </g>
    </g>
</svg>