<?xml version="1.0" encoding="UTF-8"?>
<svg width="80px" height="80px" viewBox="0 0 80 80" version="1.1" xmlns="http://www.w3.org/2000/svg" xmlns:xlink="http://www.w3.org/1999/xlink">
    <title>TUSD</title>
    <g id="Page-1" stroke="none" stroke-width="1" fill="none" fill-rule="evenodd">
        <g id="TUSD" fill-rule="nonzero">
            <path d="M0,7.40741 C0,3.31641 3.31641,0 7.40741,0 L72.5926,0 C76.6836,0 80,3.31641 80,7.40741 L80,72.5926 C80,76.6836 76.6836,80 72.5926,80 L7.40741,80 C3.31641,80 0,76.6836 0,72.5926 L0,7.40741 Z" id="Path" fill="#3527CD"></path>
            <path d="M2.96289,51.8516 L77.037,51.8516 L77.037,71.8516 C77.037,74.7153 74.7155,77.0367 71.8518,77.0367 L8.14808,77.0367 C5.28438,77.0367 2.96289,74.7153 2.96289,71.8516 L2.96289,51.8516 Z" id="Path" fill="#FFFFFF"></path>
            <polygon id="Path" fill="#FFFFFF" points="44.8863 18.1588 44.8863 42.963 35.0513 42.963 35.0513 18.1588 22.2222 18.1588 22.2222 8.88892 57.7777 8.88892 57.7777 18.1588"></polygon>
            <polygon id="Path" fill="#3527CD" points="21.6921 59.9214 21.6921 57.3792 9.53955 57.3792 9.53955 59.9214 14.0077 59.9214 14.0077 71.111 17.0314 71.111 17.0314 59.9214"></polygon>
            <path d="M31.2292,71.4577 C35.3892,71.4577 37.7967,69.3585 37.7967,64.1777 L37.7967,57.3792 L34.7152,57.3792 L34.7152,64.0814 C34.7152,67.4518 33.6174,68.6266 31.2485,68.6266 C28.8796,68.6266 27.7048,67.394 27.7048,64.0814 L27.7048,57.3792 L24.6233,57.3792 L24.6233,64.1777 C24.6233,69.3585 26.8574,71.4577 31.2292,71.4577 Z" id="Path" fill="#3527CD"></path>
            <path d="M47.6083,71.477 C51.8454,71.477 53.8869,69.6473 53.8869,66.951 C53.8676,64.0622 51.6913,63.2148 47.8202,62.8873 C44.7772,62.6177 43.8335,62.3288 43.8335,61.1733 C43.8335,60.2296 44.5846,59.5362 46.8187,59.5362 C49.1298,59.5362 50.3817,60.0562 50.6513,61.7125 L53.7713,61.7125 C53.3283,58.554 51.152,57.071 46.8572,57.071 C42.8513,57.071 40.8676,58.8236 40.8676,61.2503 C40.8676,64.1777 42.9669,64.9866 46.3565,65.314 C49.592,65.6029 50.9209,65.7377 50.9209,67.1244 C50.9209,68.2414 49.9002,68.8962 47.6661,68.8962 C45.1624,68.8962 43.7565,68.1836 43.4483,66.277 L40.2706,66.277 C40.7328,69.7822 42.6972,71.477 47.6083,71.477 Z" id="Path" fill="#3527CD"></path>
            <path d="M56.9106,71.111 L62.8232,71.111 C67.4454,71.111 70.2187,69.0888 70.2187,64.5629 L70.2187,64.0429 C70.2187,59.4207 67.3683,57.3792 62.6691,57.3792 L56.9106,57.3792 L56.9106,71.111 Z M62.5343,59.9214 C65.7506,59.9214 67.2143,61.154 67.2143,64.1007 L67.2143,64.4281 C67.2143,67.3555 65.7891,68.5303 62.6691,68.5303 L59.8187,68.5303 L59.8187,59.9214 L62.5343,59.9214 Z" id="Shape" fill="#3527CD"></path>
        </g>
    </g>
</svg>